<?xml version="1.0" standalone="no"?>
<!DOCTYPE svg PUBLIC "-//W3C//DTD SVG 20010904//EN"
 "http://www.w3.org/TR/2001/REC-SVG-20010904/DTD/svg10.dtd">
<svg version="1.0" xmlns="http://www.w3.org/2000/svg"
 width="1080.000000pt" height="1452.000000pt" viewBox="0 0 1080.000000 1452.000000"
 preserveAspectRatio="xMidYMid meet">
<metadata>
Created by potrace 1.16, written by Peter Selinger 2001-2019
</metadata>
<g transform="translate(0.000000,1452.000000) scale(0.100000,-0.100000)"
fill="#000000" stroke="none">
<path d="M0 14470 l0 -50 5400 0 5400 0 0 50 0 50 -5400 0 -5400 0 0 -50z"/>
<path d="M7426 8625 c-8 -8 -23 -14 -33 -13 -33 2 -88 -3 -76 -9 10 -3 10 -8
-1 -19 -21 -21 -39 -17 -33 6 4 17 2 18 -14 9 -11 -5 -19 -6 -19 -1 0 6 -9 12
-20 15 -11 3 -20 1 -20 -3 0 -18 -31 -38 -55 -36 -15 2 -25 -2 -25 -9 0 -13
-43 -25 -94 -25 -17 0 -41 -7 -53 -15 -14 -10 -24 -12 -28 -5 -3 5 -11 10 -16
10 -6 0 -7 -4 -4 -10 10 -16 -7 -12 -28 8 -22 18 -22 18 0 -35 3 -7 0 -13 -6
-13 -6 0 -11 4 -11 10 0 18 -45 5 -72 -22 -27 -25 -38 -45 -19 -34 7 5 21 -15
21 -29 0 -2 -16 -3 -35 -1 -31 2 -34 0 -29 -17 7 -21 -1 -21 -65 -1 -16 5 -22
4 -18 -3 4 -6 20 -13 37 -16 33 -7 36 -19 15 -57 -14 -24 -14 -24 -8 13 5 30
3 37 -11 37 -15 0 -16 -7 -11 -47 5 -37 4 -44 -5 -30 -6 9 -8 22 -5 27 3 6 1
10 -4 10 -6 0 -11 11 -11 24 0 13 -7 27 -16 30 -8 3 -12 2 -9 -4 3 -6 -5 -10
-19 -10 -20 0 -26 -5 -27 -22 -1 -22 -1 -22 -9 2 l-8 25 -2 -25 c-2 -21 -3
-22 -7 -5 -7 26 -23 45 -37 44 -7 0 -6 -2 2 -6 6 -2 9 -10 6 -15 -4 -7 -2 -8
4 -4 7 4 12 2 12 -4 0 -8 -10 -9 -32 -4 -18 4 -42 8 -53 9 -11 1 -28 5 -39 10
-12 5 -21 3 -27 -6 -6 -9 -4 -15 6 -17 8 -2 15 -8 15 -13 0 -6 4 -7 10 -4 6 3
7 -1 4 -10 -5 -12 -10 -13 -17 -6 -6 6 -18 11 -27 11 -13 0 -13 -2 0 -10 10
-6 3 -8 -23 -7 -28 2 -36 6 -32 17 4 8 -5 3 -18 -10 -13 -14 -22 -28 -20 -32
2 -5 -5 -8 -17 -8 -12 0 -19 -4 -15 -9 11 -20 -39 -34 -83 -24 -16 4 -21 10
-17 22 5 12 4 13 -6 4 -10 -10 -9 -15 1 -28 10 -12 10 -15 -3 -15 -21 0 -30
42 -12 56 8 6 12 14 8 17 -3 4 0 7 8 7 11 0 11 2 -1 10 -23 15 -33 12 -27 -10
7 -26 -9 -25 -52 1 -25 15 -31 23 -22 32 6 6 11 19 11 28 0 14 -6 16 -36 9
-27 -6 -34 -6 -25 3 16 16 14 37 -5 37 -8 0 -13 -4 -10 -8 2 -4 -4 -8 -15 -8
-10 0 -19 7 -20 16 0 10 -3 9 -9 -5 -5 -11 -9 -14 -9 -7 -1 7 -5 10 -11 7 -5
-3 -10 0 -10 7 0 9 -3 9 -10 -2 -8 -12 -10 -10 -10 9 0 16 -4 21 -14 18 -8 -3
-17 1 -20 9 -9 24 -36 16 -36 -11 0 -14 -5 -25 -11 -25 -6 0 -9 6 -6 14 7 17
-44 30 -54 14 -4 -7 -8 -7 -10 1 -3 6 -9 7 -18 1 -12 -7 -12 -11 -2 -24 7 -9
17 -13 22 -10 5 3 9 -2 9 -11 0 -13 -4 -14 -20 -5 -11 6 -20 8 -20 4 0 -3 -7
-1 -15 6 -12 10 -13 15 -4 21 9 5 8 11 -4 24 -10 9 -17 13 -17 9 0 -4 -6 1
-14 11 -13 18 -17 18 -40 5 -15 -7 -23 -16 -19 -19 14 -10 16 -44 2 -35 -7 4
-10 3 -6 -3 4 -6 24 -9 44 -6 21 3 35 2 32 -1 -3 -3 -18 -7 -32 -8 -15 -1 -27
-6 -27 -10 0 -4 -7 -8 -16 -8 -8 0 -12 5 -9 10 3 6 4 10 0 10 -3 0 -10 -10
-15 -22 l-9 -23 0 23 c-1 25 -11 28 -29 10 -9 -9 -12 -8 -12 5 0 9 5 17 10 17
23 0 8 25 -15 26 -21 2 -24 -1 -14 -12 17 -21 3 -44 -28 -45 -24 -2 -25 -2 -5
-6 25 -5 29 -21 7 -29 -8 -4 -13 -9 -11 -13 2 -3 -18 -6 -45 -7 -41 0 -49 3
-44 15 5 13 4 13 -6 4 -15 -15 4 -43 28 -43 17 0 12 -22 -7 -28 -8 -3 -10 0
-5 8 5 8 -3 5 -17 -6 -18 -13 -22 -22 -14 -27 7 -6 6 -7 -3 -5 -23 6 -22 38 2
48 14 5 16 9 7 9 -9 1 -26 -6 -38 -15 -13 -9 -36 -14 -51 -12 -16 2 -28 -1
-28 -7 0 -7 14 -11 33 -10 24 2 31 -1 27 -11 -3 -8 1 -14 11 -14 9 0 16 -7 16
-15 0 -8 9 -15 20 -15 11 0 20 -4 20 -9 0 -4 11 -6 25 -3 15 2 25 0 25 -7 0
-6 7 -11 15 -11 8 0 15 -4 15 -10 0 -5 7 -7 15 -4 14 6 20 -11 16 -38 0 -5 4
-8 10 -8 6 0 8 9 4 23 -5 20 -5 20 9 -3 9 -17 11 -27 4 -31 -15 -9 0 -29 22
-29 32 0 34 -50 2 -50 -12 -1 -10 -5 8 -16 21 -12 22 -14 5 -12 -12 2 -21 -3
-21 -12 -1 -8 -2 -23 -3 -33 0 -10 -5 -15 -11 -12 -5 3 -10 2 -10 -4 0 -5 8
-12 18 -14 9 -2 2 -2 -15 0 -19 2 -33 -1 -33 -7 0 -5 14 -10 31 -10 16 0 28
-4 24 -9 -3 -5 5 -12 17 -14 13 -3 -11 -5 -52 -5 -138 0 -152 -1 -144 -14 5
-9 2 -9 -9 1 -9 7 -17 9 -17 3 0 -5 -7 -13 -16 -16 -8 -3 -12 -2 -9 4 3 6 -3
10 -15 10 -14 0 -19 -4 -14 -12 5 -10 4 -10 -6 -1 -11 10 -17 8 -31 -8 -10
-12 -23 -18 -28 -14 -6 3 -11 1 -11 -4 0 -6 -9 -11 -19 -11 -11 0 -22 -4 -26
-10 -3 -5 -12 -7 -19 -4 -8 3 -17 0 -21 -5 -3 -6 -11 -9 -16 -6 -5 4 -9 -1 -9
-9 0 -13 4 -13 33 -1 68 28 264 56 322 45 6 -1 20 -1 32 -1 11 1 24 -3 28 -9
3 -5 11 -7 17 -4 7 4 8 2 4 -4 -4 -7 -2 -12 5 -12 7 0 10 -2 7 -5 -3 -3 -17
-1 -32 4 -16 7 -26 7 -26 1 0 -6 -20 -8 -47 -5 -33 3 -43 2 -33 -5 8 -5 37
-10 63 -10 36 0 46 -3 41 -12 -6 -10 -4 -10 7 0 16 15 33 16 23 1 -4 -8 0 -9
15 -4 12 4 21 2 21 -4 0 -6 -19 -12 -42 -12 -37 -1 -34 -3 21 -10 78 -10 88
-17 24 -17 -58 1 -129 -23 -125 -41 2 -10 -7 -12 -33 -9 -19 2 -35 1 -35 -4 0
-4 -7 -5 -15 -2 -8 4 -22 0 -31 -7 -9 -7 -22 -14 -29 -15 -7 -1 -23 -5 -35 -9
-15 -5 -20 -4 -16 4 10 16 -10 13 -28 -4 -8 -8 -20 -15 -26 -15 -28 0 -110
-44 -110 -59 0 -12 -2 -13 -8 -3 -6 9 -12 6 -21 -11 -11 -21 -53 -53 -73 -56
-23 -4 -38 -15 -38 -27 0 -8 -7 -14 -15 -14 -8 0 -15 -4 -15 -9 0 -5 -9 -13
-20 -16 -11 -4 -18 -10 -15 -15 3 -5 0 -12 -6 -15 -5 -4 -8 -13 -5 -21 3 -9
-1 -11 -12 -8 -13 4 -13 3 2 -7 16 -10 21 -9 32 6 12 17 14 17 20 1 5 -13 9
-14 20 -5 16 13 62 4 86 -18 12 -10 26 -13 45 -9 18 4 23 3 15 -2 -20 -14 20
-22 43 -9 12 6 16 6 11 -1 -3 -6 4 -14 15 -17 20 -7 20 -8 6 -17 -10 -5 -17
-14 -17 -19 0 -6 5 -7 10 -4 6 3 10 2 10 -3 0 -12 -32 -47 -50 -55 -23 -10
180 4 225 15 22 6 51 11 65 13 14 1 33 6 42 10 9 4 23 3 30 -1 7 -4 10 -4 6 1
-4 4 0 14 10 21 27 21 37 16 16 -7 -19 -22 -19 -22 6 -10 14 7 39 18 55 26 17
7 41 18 55 25 14 6 35 12 45 14 11 2 20 9 20 17 0 8 8 13 19 11 10 -2 15 1 12
6 -3 5 8 15 24 22 17 7 30 16 30 21 0 5 7 6 15 3 8 -4 15 -1 15 7 0 7 3 10 6
6 3 -3 17 6 29 19 30 32 29 32 50 14 17 -14 18 -13 12 20 -5 25 -4 31 3 20 5
-8 10 -10 10 -5 0 6 4 5 8 -2 5 -8 12 -7 27 4 16 12 16 14 3 10 -10 -3 -20 -1
-24 5 -4 7 -3 8 5 4 6 -4 14 0 17 8 3 9 16 16 28 16 12 0 29 9 39 20 9 11 14
20 10 20 -4 0 1 6 11 13 20 15 27 47 14 64 -5 7 -5 13 0 17 6 3 12 -4 15 -15
5 -18 8 -19 20 -8 8 8 13 16 11 18 -7 8 38 61 47 56 5 -4 9 -1 9 4 0 6 -6 11
-12 11 -9 0 -10 3 -2 8 16 10 25 67 13 79 -7 7 -4 16 11 26 15 10 20 22 16 33
-4 10 1 23 14 34 15 13 17 19 8 23 -10 4 -10 6 0 6 18 1 15 21 -4 21 -11 0
-14 5 -10 16 17 45 18 64 2 64 -13 0 -13 3 4 20 21 21 40 26 40 11 0 -6 -5
-13 -11 -17 -8 -4 -7 -9 2 -15 10 -6 9 -12 -5 -28 -19 -21 -19 -21 7 -21 14 0
34 -3 44 -6 14 -6 13 -2 -6 16 -23 22 -23 24 -5 37 10 7 27 13 38 12 20 0 20
-1 -1 -9 -13 -5 -23 -14 -23 -20 0 -7 8 -5 21 4 12 8 32 12 46 10 15 -3 22 -1
18 6 -3 5 -13 10 -21 10 -8 0 -13 4 -10 8 3 5 -8 6 -25 4 -25 -4 -28 -2 -22
14 4 11 8 13 11 6 3 -9 7 -8 18 2 16 17 19 30 4 21 -5 -3 -10 -1 -10 4 0 12
29 14 54 5 23 -9 19 -24 -6 -24 -20 0 -21 -2 -7 -15 14 -15 49 -12 49 4 0 4
18 5 40 3 45 -5 45 -22 -1 -22 -16 0 -29 -4 -29 -9 0 -10 51 -2 68 12 21 17
135 9 150 -10 7 -10 20 -18 30 -19 43 -2 52 -5 52 -14 0 -5 -8 -10 -17 -11
-10 0 -13 -3 -6 -5 7 -3 21 0 32 5 16 9 22 8 31 -9 6 -12 17 -17 28 -14 13 5
14 4 3 -4 -11 -8 -9 -12 9 -22 12 -6 19 -14 16 -17 -3 -3 -17 2 -30 11 -14 9
-31 16 -38 15 -7 0 -3 -5 10 -11 12 -6 22 -18 22 -26 0 -8 6 -12 15 -8 8 3 15
1 15 -4 0 -6 8 -10 18 -11 14 0 14 -2 -3 -9 -14 -6 -15 -9 -5 -10 9 -1 6 -5
-7 -10 -16 -6 -23 -18 -23 -35 0 -14 0 -28 0 -32 0 -5 6 -8 13 -8 6 -1 11 -6
10 -13 -4 -16 10 -15 26 1 10 10 11 9 6 -5 -4 -10 -14 -18 -23 -18 -8 0 -12
-3 -9 -6 3 -4 2 -15 -4 -25 -8 -16 -5 -21 15 -29 13 -5 27 -18 31 -29 3 -12
13 -21 20 -21 9 0 12 -6 9 -15 -4 -8 -15 -15 -25 -15 -10 0 -19 -5 -19 -10 0
-12 52 -2 61 12 7 12 23 -21 20 -42 -1 -12 1 -11 12 3 15 18 33 24 22 7 -6
-10 29 -50 45 -50 6 0 10 -10 10 -22 1 -21 2 -21 11 -5 14 25 39 21 39 -5 0
-14 3 -18 8 -12 5 9 11 8 20 -2 10 -12 10 -14 -2 -14 -8 0 -17 -4 -21 -9 -3
-6 4 -8 17 -5 41 8 76 -6 87 -34 5 -15 10 -21 10 -14 1 19 19 14 26 -8 4 -11
15 -20 26 -20 11 0 17 5 14 10 -3 6 3 10 14 10 13 0 21 7 21 18 1 16 1 16 14
-1 8 -10 18 -17 22 -16 9 2 10 2 89 -26 28 -9 61 -18 75 -19 14 -2 33 -6 43
-11 38 -16 379 -4 385 14 2 6 8 11 13 11 6 0 7 -4 4 -10 -3 -6 1 -7 9 -4 9 3
16 14 16 24 0 10 6 20 13 23 8 3 6 10 -8 21 -24 18 -13 21 15 4 10 -7 23 -9
27 -5 10 11 -17 27 -44 27 -14 0 -23 6 -23 15 0 9 6 12 16 8 10 -4 17 1 21 16
3 11 12 21 19 21 8 0 14 5 14 11 0 5 5 7 12 3 8 -5 9 -2 5 10 -5 12 -3 16 5
13 7 -2 23 0 36 4 13 5 22 5 22 -1 0 -6 9 -6 23 -1 30 12 140 2 149 -13 5 -7
8 -6 8 4 0 9 -5 21 -12 28 -18 18 52 16 79 -3 12 -8 28 -12 37 -9 9 3 16 1 16
-5 0 -6 5 -11 10 -11 6 0 10 9 10 20 0 11 -6 20 -13 20 -7 0 -18 9 -24 19 -11
17 -9 21 8 26 19 7 20 7 2 20 -10 7 -15 17 -11 21 4 4 3 13 -2 20 -6 6 -10 16
-9 20 5 28 -3 54 -16 54 -9 0 -15 9 -15 21 0 18 -2 19 -15 9 -8 -7 -15 -9 -15
-5 0 4 -6 2 -14 -4 -11 -10 -15 -8 -19 6 -4 17 -5 17 -6 1 -1 -11 -9 -18 -21
-18 -25 0 -25 9 -3 26 27 19 7 29 -25 14 -15 -8 -31 -16 -37 -19 -5 -3 -4 3 3
12 12 14 12 19 -1 31 -8 8 -17 13 -20 10 -3 -3 -9 5 -13 18 l-8 23 -7 -25 -7
-25 -1 25 c-1 20 -3 22 -11 10 -5 -8 -10 -10 -10 -4 0 7 -11 15 -25 18 -14 4
-25 10 -25 15 0 4 -11 6 -24 4 -16 -3 -31 2 -46 17 -12 12 -28 19 -35 16 -9
-3 -12 0 -8 10 3 8 -1 14 -10 14 -8 0 -18 -6 -20 -12 -4 -8 -6 -7 -6 3 -1 14
-18 18 -88 24 -49 4 -93 11 -98 15 -6 5 -77 8 -158 7 -91 -1 -148 2 -151 8 -2
6 3 18 12 28 13 14 13 17 1 18 -8 1 -3 5 11 9 25 8 25 8 -5 10 -30 2 -30 2 -5
10 20 6 14 8 -30 10 -30 1 -47 4 -37 7 18 5 18 5 1 18 -16 11 -14 14 19 26 25
9 33 16 24 21 -8 5 -7 8 6 8 9 0 17 7 17 15 0 8 7 15 15 15 8 0 15 5 15 11 0
14 30 38 48 39 8 0 22 10 33 23 10 12 18 16 19 10 0 -18 20 -16 20 1 0 8 16
16 41 20 29 5 39 11 36 20 -4 10 5 16 29 20 19 4 34 12 34 18 0 6 8 8 18 6 10
-3 23 1 30 9 7 7 18 10 24 7 6 -4 8 -3 4 4 -3 5 -3 12 1 15 5 2 1 2 -7 -1 -51
-15 -50 -15 -50 17 0 33 8 39 28 19 7 -7 13 -9 13 -5 5 28 20 57 30 57 4 0 6
-7 2 -16 -5 -13 -3 -14 13 -6 28 15 36 15 44 2 6 -10 13 -9 31 4 13 9 40 16
60 16 32 0 40 -5 58 -36 16 -27 27 -35 41 -31 14 4 20 0 21 -11 0 -12 2 -13 6
-4 10 25 -18 69 -55 87 -42 21 -113 20 -125 -1 -9 -16 -37 -19 -37 -3 0 5 -5
7 -12 3 -6 -4 -16 -1 -22 7 -6 8 -17 14 -25 14 -8 0 -16 6 -19 14 -3 10 0 12
14 6 11 -4 35 -9 54 -11 31 -4 33 -3 15 8 -29 17 -47 37 -41 46 2 4 -9 9 -25
10 -20 2 -28 -1 -24 -8 8 -13 -27 -9 -68 8 -17 7 -35 9 -45 3 -9 -4 -30 -11
-46 -15 -27 -7 -28 -5 -22 19 5 21 3 25 -11 23 -10 -2 -21 -7 -24 -11 -3 -5
-27 -9 -53 -9 -27 0 -46 -4 -46 -11 0 -8 -4 -7 -12 1 -9 9 -8 15 7 26 15 11
22 11 27 3 5 -8 8 -6 8 6 0 21 -23 22 -44 2z m348 -727 c-7 -11 9 -10 40 2 18
6 26 6 26 -1 0 -6 4 -8 9 -4 12 7 133 -21 178 -41 17 -8 33 -14 36 -14 10 0
54 -45 59 -60 13 -39 -70 -71 -106 -41 -9 8 -27 11 -41 9 -14 -3 -28 -1 -31 3
-3 5 -13 5 -22 0 -22 -11 -51 -2 -31 10 8 5 1 7 -20 7 -18 -1 -36 3 -39 8 -8
11 -60 16 -159 17 -39 1 -70 4 -67 8 2 4 -4 6 -13 4 -10 -2 -18 -4 -18 -5 0
-5 -139 -4 -153 2 -10 4 2 7 33 9 l50 2 -45 7 c-31 5 -36 7 -17 8 16 1 26 6
22 11 -3 5 4 13 16 16 36 12 13 16 -31 6 -30 -7 -39 -6 -32 1 6 6 38 12 71 12
33 0 54 4 48 8 -8 5 -5 8 8 8 11 0 45 3 75 6 40 4 51 3 40 -5 -12 -9 -11 -11
8 -11 13 0 21 4 17 9 -3 5 5 12 17 14 35 7 77 4 72 -5z m-2529 -435 c9 -21 23
-45 32 -55 15 -17 14 -18 -20 -18 -20 0 -39 -4 -42 -10 -3 -5 -13 -10 -21 -10
-8 0 -13 4 -10 8 2 4 -19 8 -47 9 -29 0 -65 8 -81 16 l-30 16 26 10 c14 5 27
14 29 20 2 6 13 12 24 14 11 1 26 7 34 11 10 7 12 5 6 -5 -5 -8 2 -5 15 6 13
11 20 14 16 8 -4 -8 -1 -13 8 -13 9 0 16 7 16 15 0 29 30 15 45 -22z"/>
<path d="M8851 7099 c-18 -17 -21 -28 -17 -58 3 -20 11 -112 17 -205 10 -151
14 -176 37 -220 14 -28 30 -54 35 -57 4 -3 7 -10 6 -15 -2 -5 1 -20 5 -33 15
-44 23 -2 10 51 -8 28 -11 55 -7 61 3 5 1 7 -4 4 -20 -13 -38 224 -24 324 8
63 -7 169 -24 169 -6 0 -21 -9 -34 -21z"/>
<path d="M6524 7075 c-4 -8 -14 -15 -24 -15 -10 0 -21 -8 -23 -17 -4 -17 -5
-17 -6 0 -1 17 -21 25 -21 8 0 -5 -9 -11 -20 -14 -13 -3 -18 -10 -14 -21 3 -9
2 -16 -3 -16 -6 0 -15 -11 -21 -24 -9 -20 -7 -26 16 -45 14 -11 20 -21 13 -21
-7 0 -22 11 -33 25 -24 31 -38 32 -30 3 5 -20 3 -21 -10 -10 -14 11 -17 10
-24 -10 -12 -34 -11 -50 3 -80 20 -42 16 -42 -30 -4 -24 20 -65 45 -91 57 -26
11 -50 27 -53 36 -5 12 -7 12 -14 1 -6 -9 -9 -3 -9 18 0 16 5 35 11 41 7 7 6
12 -6 17 -11 4 -14 2 -9 -7 6 -9 4 -9 -7 -1 -10 8 -24 7 -54 -7 -24 -11 -32
-19 -21 -19 38 0 5 -14 -37 -15 -43 -1 -91 -20 -83 -33 2 -4 -11 -18 -29 -31
-50 -34 -69 -81 -62 -159 4 -58 3 -67 -16 -82 -19 -16 -20 -21 -8 -60 16 -53
72 -115 89 -98 9 9 12 9 12 0 0 -7 11 -12 25 -12 17 0 23 -4 19 -14 -3 -9 6
-17 26 -24 18 -7 28 -7 25 -2 -4 6 13 10 39 10 25 0 46 5 46 10 0 14 37 12 43
-2 4 -9 8 -10 14 -2 4 6 15 14 23 17 11 4 10 6 -5 7 -11 2 7 8 40 15 43 8 59
15 57 26 -2 8 -1 11 3 7 4 -4 18 -3 31 2 22 9 24 8 14 -10 -12 -22 -1 -33 20
-19 13 8 13 9 1 9 -23 0 4 23 29 25 22 2 27 -10 8 -18 -10 -4 -10 -6 0 -6 7
-1 20 -8 29 -17 9 -8 28 -14 42 -12 16 1 40 -7 59 -20 l31 -23 13 21 c7 11 19
20 26 20 10 0 10 -4 -2 -16 -9 -8 -16 -20 -16 -25 0 -5 -7 -9 -15 -9 -8 0 -15
-5 -15 -11 0 -6 7 -8 16 -5 9 3 23 6 32 6 12 0 13 3 5 8 -19 12 0 28 35 28 24
0 32 -4 32 -18 0 -10 7 -18 15 -18 8 0 15 6 15 13 0 9 2 9 8 0 4 -6 23 -13 42
-16 26 -3 19 -5 -25 -7 -33 -1 -50 -5 -37 -7 22 -4 31 -22 12 -24 -5 -1 -14
-2 -19 -3 -23 -3 -22 -16 2 -16 14 0 28 4 32 9 3 5 21 7 40 4 22 -3 35 -2 35
5 0 6 10 12 23 14 14 2 23 11 25 26 4 30 22 28 22 -2 0 -14 4 -27 9 -30 13 -9
21 20 9 32 -12 12 -2 32 17 32 8 0 11 7 8 19 -4 15 1 18 24 16 15 -1 38 -3 51
-3 13 -1 20 -6 17 -12 -3 -5 4 -10 16 -10 20 0 21 -1 5 -25 -9 -13 -16 -32
-16 -42 0 -15 -2 -16 -10 -3 -7 11 -10 7 -10 -17 0 -30 2 -31 28 -23 63 19 65
20 40 43 l-23 20 23 -6 c15 -4 22 -1 22 10 0 13 12 15 71 11 l71 -4 -5 32 c-4
24 0 37 15 51 11 10 22 17 24 16 13 -8 34 -1 34 11 0 8 8 21 19 28 10 7 26 33
34 58 15 42 14 46 -3 60 -9 8 -20 22 -24 30 -3 8 -4 5 -2 -7 5 -27 -6 -30 -25
-6 -11 13 -11 17 -1 20 6 3 12 9 12 14 0 4 -7 6 -15 3 -12 -5 -15 4 -17 42 -1
59 -2 62 -16 97 -6 15 -16 27 -22 27 -5 0 -10 8 -10 18 0 11 -15 27 -35 38
-20 10 -33 24 -31 31 3 7 -4 11 -21 9 -14 -2 -43 0 -64 4 -21 4 -37 4 -34 0 4
-7 -105 -47 -118 -42 -5 1 -6 -1 -3 -6 3 -5 -19 -17 -49 -28 -30 -10 -55 -22
-55 -26 0 -4 -6 -8 -12 -8 -20 -1 -58 -36 -58 -54 0 -15 -31 -18 -46 -4 -9 10
6 48 19 48 7 0 18 9 25 20 7 12 16 19 21 16 4 -3 5 9 3 26 -3 16 -7 26 -11 21
-9 -15 -63 -23 -58 -9 2 6 8 12 13 12 43 7 75 34 39 34 -8 0 -15 -4 -15 -10 0
-5 -16 -10 -35 -10 -37 0 -46 15 -22 39 10 10 9 11 -5 6 -11 -4 -18 -2 -18 4
0 6 -12 11 -27 11 -14 0 -23 3 -20 6 8 9 -11 44 -24 44 -5 0 -12 -7 -15 -15z"/>
<path d="M4327 6739 c-9 -6 -17 -16 -17 -23 0 -8 -7 -16 -15 -20 -12 -4 -14
-24 -12 -106 1 -61 -2 -100 -8 -100 -5 0 -5 -4 2 -8 8 -5 11 -29 8 -70 -1 -34
1 -65 6 -68 5 -3 9 -50 9 -105 0 -84 3 -102 19 -118 11 -11 21 -30 23 -43 3
-13 5 13 6 57 2 81 20 162 52 225 15 31 16 50 8 165 -4 72 -6 139 -3 151 3 13
-3 28 -18 41 -32 29 -41 32 -60 22z"/>
<path d="M7072 6083 c3 -12 -11 -93 -24 -135 -12 -42 -34 -53 -24 -13 6 25 -8
36 -17 13 -3 -7 -6 3 -6 22 -1 26 -4 31 -11 20 -12 -20 -21 -9 -13 18 3 12 11
22 18 22 9 0 11 8 7 22 -4 16 -7 18 -10 8 -6 -18 -32 -45 -32 -33 0 4 -7 -5
-15 -21 -8 -15 -15 -34 -15 -41 0 -8 -8 -11 -19 -8 -19 5 -19 5 0 24 10 10 19
27 19 36 0 15 -1 15 -13 -2 -8 -10 -19 -15 -25 -11 -8 5 -10 2 -6 -8 3 -9 2
-16 -3 -16 -5 0 -8 -13 -5 -29 3 -22 -1 -32 -16 -40 -11 -6 -22 -7 -26 -4 -3
3 -6 -10 -6 -31 0 -22 -6 -39 -14 -42 -8 -3 -12 -13 -8 -26 4 -15 2 -19 -8
-13 -7 4 -16 2 -20 -5 -13 -20 -18 3 -8 38 7 27 12 31 23 22 11 -9 14 -7 12 9
-1 12 -7 21 -14 21 -8 0 -13 12 -13 30 0 17 -5 30 -11 30 -6 0 -8 -9 -4 -21 4
-12 1 -49 -6 -83 l-13 -61 -12 30 c-12 26 -13 27 -14 8 0 -16 -6 -23 -20 -23
-10 0 -24 -8 -29 -17 -9 -16 -12 -16 -21 -3 -6 10 -10 11 -10 3 0 -15 -36 -17
-45 -3 -3 6 -21 10 -40 10 -18 0 -35 5 -37 11 -3 9 -10 9 -27 0 -16 -9 -26 -9
-35 -2 -7 6 -15 8 -19 5 -3 -3 -15 0 -27 6 -15 8 -20 8 -16 1 4 -7 -1 -11 -13
-11 -11 0 -23 5 -26 10 -4 6 -10 8 -15 5 -5 -3 -13 2 -18 11 -5 9 -12 15 -15
15 -20 -3 -24 1 -20 23 3 13 0 26 -5 30 -6 4 -8 -2 -5 -14 4 -14 0 -20 -12
-20 -12 0 -16 6 -12 20 3 11 1 18 -4 14 -5 -3 -9 2 -9 10 0 9 4 16 8 16 5 0
14 16 20 36 8 26 8 34 -1 31 -7 -2 -12 -8 -13 -13 -1 -15 -28 -69 -38 -76 -6
-4 -15 -4 -21 0 -5 3 -4 -2 4 -11 12 -15 12 -17 -3 -11 -20 8 -21 43 0 72 9
13 11 22 4 22 -6 0 -15 -10 -20 -22 -8 -21 -9 -22 -10 -3 l-1 20 -8 -20 c-5
-11 -6 -26 -4 -32 8 -19 -15 -16 -26 4 -5 11 -5 26 0 41 5 14 7 27 4 30 -3 4
-8 -4 -12 -16 -3 -12 -9 -19 -14 -16 -5 3 -9 -4 -9 -15 0 -12 5 -21 10 -21 6
0 10 -7 10 -15 0 -8 -4 -15 -9 -15 -11 0 -21 36 -21 79 0 36 -14 33 -23 -4 -3
-15 -5 -12 -7 10 l-2 30 -8 -30 c-6 -22 -8 -24 -9 -9 -1 22 -37 44 -58 37 -7
-3 -13 -17 -14 -31 0 -24 -1 -25 -9 -7 -5 11 -11 29 -15 40 -6 18 -8 18 -18 4
-7 -9 -18 -14 -24 -12 -16 6 -17 33 -1 33 6 0 8 3 5 7 -12 12 -45 -27 -40 -48
3 -10 0 -19 -6 -19 -6 0 -11 -14 -11 -31 0 -25 -3 -29 -13 -20 -8 6 -17 8 -21
4 -4 -4 -4 1 0 12 7 18 6 19 -12 5 -34 -26 -53 -48 -47 -54 4 -3 1 -6 -6 -6
-6 0 -14 8 -17 18 -16 48 -24 56 -19 17 2 -22 4 -44 5 -49 0 -5 3 -6 7 -3 3 4
11 -3 18 -16 6 -12 18 -21 27 -19 15 2 32 -31 21 -42 -9 -9 -33 6 -33 20 0 8
-6 14 -14 14 -17 0 -31 -33 -17 -38 6 -2 11 -12 11 -23 0 -10 5 -19 10 -19 6
0 10 -9 10 -21 0 -29 -18 -14 -36 30 -17 43 -50 70 -50 40 0 -11 5 -19 12 -19
7 0 11 -17 11 -41 l0 -42 -12 30 c-14 32 -33 44 -68 42 -20 -1 -20 -2 3 -9 24
-8 23 -8 -8 -9 -18 -1 -31 -4 -28 -9 2 -4 -13 -16 -35 -26 -21 -11 -39 -24
-39 -29 0 -5 -7 -4 -16 4 -13 11 -14 9 -9 -14 5 -17 2 -33 -5 -42 -10 -12 -9
-15 6 -16 16 0 16 -2 -3 -9 -13 -5 -23 -12 -23 -16 0 -3 8 -3 18 1 9 4 43 9
75 10 43 2 64 8 80 23 28 26 71 44 122 49 22 2 42 9 43 14 2 5 12 9 23 9 10 0
19 4 19 8 0 5 11 14 25 20 14 6 25 8 25 3 0 -10 47 0 94 18 31 13 196 13 196
1 0 -4 22 -10 49 -14 27 -3 55 -13 61 -22 7 -8 20 -14 29 -13 9 1 19 0 24 -1
4 -1 10 -3 15 -4 43 -11 91 -30 88 -35 -3 -3 25 -6 60 -5 35 0 64 -3 64 -7 0
-4 9 -5 20 -2 11 3 17 10 13 17 -4 6 1 5 10 -3 9 -7 17 -9 17 -4 0 19 244 54
370 53 89 -1 229 -17 270 -33 57 -21 118 -38 132 -38 9 0 22 -7 28 -14 8 -10
22 -12 43 -8 53 10 63 42 20 63 -41 19 -147 39 -151 29 -7 -19 -20 -8 -18 15
0 13 4 22 9 19 4 -2 7 0 7 5 0 9 -22 22 -36 22 -3 0 -4 -10 -2 -22 2 -16 -3
-22 -20 -23 -13 -1 -26 4 -29 12 -3 7 -10 10 -16 6 -6 -4 -8 2 -5 15 4 12 0
26 -9 33 -10 9 -11 14 -2 19 8 6 8 9 0 14 -6 4 -11 3 -11 -2 0 -13 -53 -68
-72 -75 -10 -4 -18 -2 -18 3 0 6 -7 10 -15 10 -8 0 -15 9 -15 20 0 22 37 60
59 60 8 0 11 3 8 6 -3 4 0 16 8 28 8 11 15 28 15 38 0 10 4 18 9 18 16 0 8 37
-11 49 -14 9 -18 8 -18 -4 0 -8 -4 -15 -10 -15 -5 0 -10 5 -10 10 0 6 -5 10
-11 10 -6 0 -9 -7 -5 -15 3 -8 1 -15 -5 -15 -6 0 -9 -6 -6 -13 4 -10 -2 -12
-21 -8 -20 4 -22 6 -9 9 12 2 17 11 15 25 -2 12 -9 21 -16 20 -14 -4 -16 13
-2 22 6 3 7 18 4 32 -4 16 -3 24 3 20 5 -3 8 6 5 24 -2 16 -8 29 -13 29 -5 0
-8 -3 -7 -7z"/>
<path d="M6146 5103 c-4 -4 -20 -9 -34 -10 -46 -4 -49 -6 -44 -29 3 -17 -3
-26 -26 -38 -17 -9 -32 -21 -35 -28 -3 -8 -6 -6 -6 5 -1 9 -5 17 -9 17 -10 0
-32 -45 -32 -65 0 -8 -8 -15 -19 -15 -15 0 -45 -44 -46 -70 0 -3 -4 -11 -8
-17 -6 -9 -2 -13 12 -13 18 0 21 -6 21 -47 l0 -46 24 22 24 22 16 -22 c16 -23
20 -20 17 11 -1 10 7 16 21 16 68 0 99 5 93 14 -7 12 137 5 185 -9 19 -6 49
-11 66 -11 18 0 34 -6 37 -14 4 -10 18 -12 51 -9 36 4 47 2 52 -11 3 -9 17
-16 30 -16 13 0 24 -4 24 -10 0 -5 4 -10 10 -10 5 0 9 11 8 25 -1 14 -6 25
-10 25 -4 0 -8 5 -8 10 0 6 8 10 19 10 10 0 24 7 31 15 7 9 15 13 18 11 2 -3
13 -1 22 4 13 7 21 5 29 -4 9 -11 9 -15 -1 -19 -9 -3 -8 -7 5 -12 12 -5 22 -2
30 8 7 9 30 18 52 20 36 3 34 4 -15 7 l-55 3 65 7 c35 4 66 12 68 18 2 6 9 9
16 6 7 -3 31 3 53 12 l41 18 -22 19 c-11 10 -16 16 -9 13 6 -4 14 -2 17 3 5 8
-18 20 -49 25 -5 1 -9 8 -7 14 4 19 -18 53 -29 47 -5 -4 -9 9 -9 29 0 36 -19
52 -21 19 -1 -10 -4 -4 -8 12 l-6 30 -120 6 c-182 10 -489 3 -493 -11 -3 -7
-8 -5 -16 5 -6 9 -15 12 -20 8z"/>
<path d="M6353 4723 c-56 -4 -69 -21 -40 -53 10 -12 9 -12 -5 -1 -10 7 -18 22
-18 32 0 21 -34 27 -46 7 -5 -8 0 -9 16 -5 16 4 20 3 12 -5 -8 -8 -4 -16 14
-31 17 -13 23 -25 19 -36 -4 -9 -8 -23 -9 -30 -3 -15 -17 -25 -48 -35 -20 -6
-23 -33 -7 -56 8 -11 12 -12 16 -2 2 6 12 13 21 13 10 1 4 4 -13 8 l-30 7 32
14 c17 8 29 18 27 22 -3 4 2 8 10 8 9 0 16 7 16 15 0 8 9 15 20 15 11 0 20 -4
20 -10 0 -5 19 -9 43 -9 23 1 32 4 20 6 -13 2 -23 8 -23 13 0 4 -9 10 -21 13
-20 5 -20 6 -3 32 13 20 19 23 25 13 7 -10 9 -10 9 0 0 19 18 14 25 -7 6 -21
63 -37 79 -21 7 7 3 10 -12 10 -13 0 -22 6 -22 15 0 9 -9 15 -22 15 -18 0 -20
2 -9 9 12 8 12 12 -2 25 -8 9 -22 15 -29 14 -7 -1 -37 -3 -65 -5z"/>
<path d="M7078 3909 c-2 -6 -21 -13 -42 -14 -21 -2 -43 -8 -49 -14 -15 -15
-40 -14 -31 1 5 8 -2 9 -27 3 -19 -4 -45 -8 -59 -7 -14 0 -27 -3 -30 -8 -7
-12 -41 -14 -73 -5 -18 5 -33 3 -40 -4 -6 -6 -20 -11 -31 -10 -18 1 -17 2 4 9
22 7 22 8 5 10 -60 8 -85 7 -85 -1 0 -5 -7 -9 -15 -9 -8 0 -15 5 -15 10 0 6
-15 10 -32 9 -18 0 -27 -3 -20 -6 26 -10 11 -25 -23 -21 -19 2 -37 -1 -39 -7
-2 -5 -5 -1 -6 10 l-1 20 -9 -20 c-8 -19 -8 -19 -18 5 l-11 25 -1 -25 -2 -25
-8 25 -8 25 -1 -23 c-1 -21 -5 -24 -43 -22 -62 4 -68 2 -68 -19 0 -11 -6 -22
-12 -24 -8 -3 -6 -6 5 -6 9 -1 17 -8 17 -16 0 -9 10 -15 23 -16 16 -1 18 -2 5
-6 -10 -2 -18 -12 -18 -21 0 -14 -2 -15 -10 -2 -17 27 -22 2 -5 -30 10 -19 22
-30 30 -26 7 2 21 -4 31 -15 16 -17 16 -19 1 -19 -45 0 11 -89 56 -90 25 0 21
-18 -5 -23 -22 -4 -22 -4 -2 -6 14 -1 23 -9 26 -26 3 -13 2 -24 -1 -23 -20 2
-32 -4 -29 -14 3 -7 33 -13 78 -16 41 -2 81 -7 89 -12 8 -4 28 -4 45 1 17 5
44 8 61 8 17 -1 22 -3 13 -6 -10 -2 -18 -11 -18 -19 0 -13 3 -13 22 0 12 9 31
16 41 16 15 0 16 3 6 22 -9 16 -9 23 0 26 6 2 11 15 11 28 0 28 24 32 39 7 8
-15 11 -15 12 -3 1 8 1 19 0 24 -4 18 11 46 25 46 8 0 14 8 15 18 0 13 2 14 6
2 7 -18 23 -30 42 -30 11 0 11 3 1 15 -7 8 -9 15 -4 15 4 0 -1 7 -12 15 -18
14 -18 14 6 15 23 1 24 2 5 11 -14 6 -8 7 23 3 37 -5 42 -3 42 14 0 23 -27 49
-57 54 -18 2 -20 6 -12 18 8 11 12 12 16 3 6 -15 53 -18 53 -3 0 6 9 10 20 10
13 0 20 -7 20 -20 0 -13 7 -20 20 -20 22 0 27 16 8 22 -19 7 2 28 28 28 20 0
24 5 24 29 0 30 -29 48 -48 29 -12 -12 -35 -1 -27 12 6 9 19 11 78 11 20 0 37
4 37 9 0 5 10 11 23 13 12 2 3 5 -20 6 -30 1 -43 5 -43 15 0 8 5 18 10 21 6 3
10 10 10 16 0 13 -18 11 -22 -2z"/>
<path d="M0 10 c0 -7 1807 -10 5400 -10 3593 0 5400 3 5400 10 0 7 -1807 10
-5400 10 -3593 0 -5400 -3 -5400 -10z"/>
</g>
</svg>
